<svg width="248" height="36" viewBox="0 0 248 36" fill="none" xmlns="http://www.w3.org/2000/svg">
<path d="M41.5453 23.2363L40.8464 24.1258C40.7193 24.2846 40.497 24.2846 40.3699 24.1258C40.084 23.7763 39.671 23.3633 39.1309 22.855C38.9403 22.6644 38.6226 22.7915 38.6226 23.0774V26.9849C38.6226 27.1438 38.4956 27.3026 38.305 27.3026H37.066C36.9071 27.3026 36.7483 27.1755 36.7483 26.9849V23.3951C36.7483 23.1092 36.3671 22.9821 36.1765 23.2045C35.4458 24.1893 34.6834 25.0153 33.8891 25.6824C33.7621 25.8095 33.5397 25.7777 33.4444 25.6189C33.222 25.333 32.9679 25.0471 32.6819 24.7929C32.5231 24.6658 32.5549 24.4117 32.7137 24.3164C33.3173 23.8716 33.9209 23.3316 34.5245 22.6644C35.0963 22.0291 35.6046 21.3619 36.0494 20.663C36.1765 20.4406 36.0494 20.1865 35.7952 20.1865H33.1902C33.0314 20.1865 32.8726 20.0594 32.8726 19.8688V18.8522C32.8726 18.6934 32.9996 18.5345 33.1902 18.5345H36.4306C36.5895 18.5345 36.7483 18.4075 36.7483 18.2169V16.9461C36.7483 16.7873 36.6212 16.6284 36.4306 16.6284H33.1267C32.9679 16.6284 32.809 16.5014 32.809 16.3108V15.2942C32.809 15.1353 32.9361 14.9765 33.1267 14.9765H34.6198C34.8104 14.9765 34.9693 14.8176 34.9375 14.627C34.8422 14.0234 34.6516 13.3881 34.3657 12.6256C34.3021 12.4668 34.3974 12.2444 34.588 12.2126L35.6364 11.9267H33.4126C33.2538 11.9267 33.0949 11.7996 33.0949 11.609V10.656C33.0949 10.4971 33.222 10.3383 33.4126 10.3383H36.4306C36.5895 10.3383 36.7483 10.2112 36.7483 10.0206V8.68634C36.7483 8.52749 36.8754 8.36865 37.066 8.36865H38.305C38.4638 8.36865 38.6226 8.49573 38.6226 8.68634V10.0206C38.6226 10.1795 38.7497 10.3383 38.9403 10.3383H41.9583C42.1172 10.3383 42.276 10.4654 42.276 10.656V11.6408C42.276 11.7996 42.1489 11.9585 41.9583 11.9585H39.7663L40.8782 12.2126C41.0688 12.2444 41.1641 12.4668 41.1006 12.6256C40.7829 13.4516 40.497 14.087 40.3064 14.5635C40.2111 14.7541 40.3699 15.0082 40.5923 15.0082H42.2125C42.3713 15.0082 42.5301 15.1353 42.5301 15.3259V16.3425C42.5301 16.5014 42.4031 16.6602 42.2125 16.6602H38.9085C38.7497 16.6602 38.5909 16.7873 38.5909 16.9779V18.2486C38.5909 18.4075 38.7179 18.5663 38.9085 18.5663H41.9583C42.1172 18.5663 42.276 18.6934 42.276 18.884V19.9006C42.276 20.0594 42.1489 20.2183 41.9583 20.2183H38.6226V20.5677C38.845 20.7266 39.1627 20.9807 39.6075 21.3302C40.0522 21.6796 40.497 22.0291 40.9735 22.4103C41.2276 22.6009 41.4183 22.7597 41.5453 22.855C41.6406 22.8868 41.6406 23.0774 41.5453 23.2363ZM39.0356 11.9267H36.2082C35.9859 11.9267 35.827 12.1491 35.9223 12.3715C36.24 13.1021 36.4306 13.7693 36.5259 14.4046C36.5577 14.5635 36.4624 14.6906 36.3035 14.7541L35.3505 15.0082H39.9251L38.8768 14.7541C38.6862 14.7223 38.5909 14.5 38.6544 14.3411C38.9403 13.6104 39.1627 12.9751 39.3533 12.3715C39.3851 12.1173 39.258 11.9267 39.0356 11.9267ZM51.743 15.4212V16.5967C51.743 16.7555 51.6159 16.9143 51.4253 16.9143H49.8686C49.7098 16.9143 49.551 17.0414 49.551 17.232V26.9214C49.551 27.0802 49.4239 27.2391 49.2333 27.2391H47.9943C47.8355 27.2391 47.6766 27.112 47.6766 26.9214V17.232C47.6766 17.0732 47.5496 16.9143 47.3589 16.9143H44.9763V17.105C44.9763 21.5843 43.9915 24.92 41.9901 27.112C41.863 27.2391 41.6406 27.2391 41.5136 27.0802C41.4183 26.9532 41.2912 26.7943 41.1006 26.6355C40.9417 26.4766 40.7829 26.3178 40.624 26.2225C40.4652 26.1272 40.4652 25.9048 40.5923 25.7777C41.0688 25.2377 41.4818 24.6341 41.8312 23.9987C42.2125 23.2363 42.4984 22.442 42.689 21.6161C42.8796 20.7901 42.9749 20.0277 43.0384 19.3605C43.102 18.6934 43.1337 17.9309 43.1337 17.0732V10.3065C43.1337 10.1159 43.3244 9.95707 43.515 10.0206L44.3409 10.243C44.4045 10.243 44.4362 10.243 44.4998 10.243C46.9142 9.67116 48.6614 9.09933 49.7416 8.55926C49.8686 8.49573 49.9957 8.52749 50.091 8.59103C50.3452 8.81341 50.7899 9.2264 51.1394 9.51231C51.2982 9.67116 51.2665 9.95707 51.0441 10.0206C49.6463 10.5924 47.7719 11.1325 45.4528 11.609C45.1669 11.6726 44.9445 11.9267 44.9445 12.2444C44.9445 12.848 44.9445 13.8328 44.9445 14.4682C44.9445 14.8176 45.2305 15.1036 45.5799 15.1036H51.3618C51.5841 15.1353 51.743 15.2624 51.743 15.4212Z" fill="white"/>
<path d="M66.6424 24.8246H74.2668C74.4575 24.8246 74.5845 24.9517 74.5845 25.1423V26.286C74.5845 26.4766 74.4575 26.6036 74.2668 26.6036H56.2859C56.0953 26.6036 55.9683 26.4766 55.9683 26.286V25.1423C55.9683 24.9517 56.0953 24.8246 56.2859 24.8246H64.0057C64.1963 24.8246 64.3233 24.6975 64.3233 24.5069V22.9185C64.3233 22.7279 64.1963 22.6008 64.0057 22.6008H58.4144C58.2238 22.6008 58.0967 22.4738 58.0967 22.2831V21.1395C58.0967 20.9489 58.2238 20.8218 58.4144 20.8218H64.0057C64.1963 20.8218 64.3233 20.6947 64.3233 20.5041V19.5193C64.3233 19.3287 64.1963 19.2016 64.0057 19.2016H63.0844C62.8938 19.2016 62.7667 19.0745 62.7667 18.8839V15.3259C62.7667 15.1353 62.6396 15.0082 62.449 15.0082H60.7018C60.5429 15.0082 60.4158 15.1035 60.3841 15.2623C60.0028 17.1684 59.0498 18.598 57.4931 19.5828C57.3661 19.6781 57.1755 19.6464 57.0802 19.5193C56.9531 19.3922 56.826 19.2334 56.6354 19.0428C56.5083 18.9157 56.3813 18.7886 56.2859 18.6933C56.1271 18.5662 56.1589 18.3121 56.3177 18.2168C57.3978 17.5179 58.1285 16.5966 58.478 15.4529C58.5415 15.2623 58.3827 15.04 58.1603 15.04H56.5401C56.3495 15.04 56.2224 14.9129 56.2224 14.7223V13.6104C56.2224 13.4198 56.3495 13.2927 56.5401 13.2927H58.4144C58.605 13.2927 58.7321 13.1656 58.7321 12.975V11.0689C58.7321 10.8783 58.605 10.7512 58.4144 10.7512H57.2072C57.0166 10.7512 56.8895 10.6241 56.8895 10.4335V9.35341C56.8895 9.1628 57.0166 9.03573 57.2072 9.03573H65.88C66.0706 9.03573 66.1977 9.1628 66.1977 9.35341V10.4335C66.1977 10.6241 66.0706 10.7512 65.88 10.7512H64.7999C64.6093 10.7512 64.4822 10.8783 64.4822 11.0689V12.975C64.4822 13.1656 64.6093 13.2927 64.7999 13.2927H66.3248C66.5154 13.2927 66.6424 13.4198 66.6424 13.6104V14.6905C66.6424 14.8811 66.5154 15.0082 66.3248 15.0082H64.7999C64.6093 15.0082 64.4822 15.1353 64.4822 15.3259V18.5345C64.4822 18.7251 64.6093 18.8522 64.7999 18.8522H65.9118C66.1024 18.8522 66.2295 18.9792 66.2295 19.1698V20.5359C66.2295 20.7265 66.3565 20.8536 66.5471 20.8536H72.0113C72.2019 20.8536 72.329 20.9806 72.329 21.1713V22.3149C72.329 22.5055 72.2019 22.6326 72.0113 22.6326H66.5471C66.3565 22.6326 66.2295 22.7597 66.2295 22.9503V24.5387C66.3248 24.6975 66.4518 24.8246 66.6424 24.8246ZM60.8924 13.2927H62.449C62.6396 13.2927 62.7667 13.1656 62.7667 12.975V11.0689C62.7667 10.8783 62.6396 10.7512 62.449 10.7512H60.8924C60.7018 10.7512 60.5747 10.8783 60.5747 11.0689V12.975C60.5747 13.1656 60.7335 13.2927 60.8924 13.2927ZM69.6287 9.7664V16.0565C69.6287 16.2472 69.5016 16.3742 69.311 16.3742H68.1673C67.9767 16.3742 67.8496 16.2472 67.8496 16.0565V9.7664C67.8496 9.57579 67.9767 9.44872 68.1673 9.44872H69.311C69.4698 9.44872 69.6287 9.57579 69.6287 9.7664ZM73.155 8.43213C73.3456 8.43213 73.4726 8.5592 73.4726 8.74981V17.4226C73.4726 17.9309 73.4091 18.3121 73.282 18.5662C73.155 18.8522 72.9326 19.0428 72.5831 19.1698C72.1066 19.3605 71.1218 19.4558 69.6922 19.4875C69.5334 19.4875 69.4063 19.3922 69.3745 19.2334C69.311 18.8839 69.1839 18.5345 69.0251 18.185C68.9298 17.9626 69.0886 17.7403 69.3427 17.7403C70.2323 17.772 70.8359 17.772 71.2171 17.7403C71.3759 17.7403 71.503 17.7085 71.5348 17.645C71.5983 17.5814 71.6301 17.4861 71.6301 17.359V8.74981C71.6301 8.5592 71.7571 8.43213 71.9478 8.43213H73.155Z" fill="white"/>
<path d="M79.5085 13.1653V11.6404C79.5085 11.4498 79.6356 11.3228 79.8262 11.3228H90.6593C90.8499 11.3228 90.9769 11.4498 90.9769 11.6404V24.8879C90.9769 25.0785 90.8499 25.2055 90.6593 25.2055H79.8262C79.6356 25.2055 79.5085 25.0785 79.5085 24.8879V23.363C79.5085 23.1724 79.6356 23.0453 79.8262 23.0453H88.4672C88.6578 23.0453 88.7849 22.9182 88.7849 22.7276V13.8325C88.7849 13.6418 88.6578 13.5148 88.4672 13.5148H79.8262C79.6356 13.483 79.5085 13.3559 79.5085 13.1653Z" fill="white"/>
<path d="M109.085 25.2055H97.9341C97.7435 25.2055 97.6165 25.0785 97.6165 24.8879V11.6404C97.6165 11.4498 97.7435 11.3228 97.9341 11.3228H109.085C109.275 11.3228 109.403 11.4498 109.403 11.6404V24.8879C109.403 25.0785 109.275 25.2055 109.085 25.2055ZM106.766 13.5465H100.221C100.031 13.5465 99.9038 13.6736 99.9038 13.8642V22.6958C99.9038 22.8864 100.031 23.0135 100.221 23.0135H106.766C106.956 23.0135 107.083 22.8864 107.083 22.6958V13.8642C107.083 13.6736 106.956 13.5465 106.766 13.5465Z" fill="white"/>
<path d="M115.312 15.7069V14.1502C115.312 13.9596 115.439 13.8325 115.629 13.8325H120.744C120.935 13.8325 121.062 13.7055 121.062 13.5148V10.5286C121.062 10.338 121.189 10.2109 121.379 10.2109H122.968C123.158 10.2109 123.285 10.338 123.285 10.5286V13.5148C123.285 13.7055 123.412 13.8325 123.603 13.8325H128.146C128.337 13.8325 128.464 13.9596 128.464 14.1502V15.7069C128.464 15.8975 128.337 16.0246 128.146 16.0246H123.603C123.412 16.0246 123.285 16.1516 123.285 16.3422V19.0108C123.254 20.3768 122.936 21.4887 122.396 22.3147C121.856 23.1407 121.189 23.8396 120.458 24.3161C119.727 24.8244 118.965 25.2374 118.202 25.5233C117.599 25.7774 117.059 25.9681 116.519 26.1587C116.296 26.2222 116.106 26.0951 116.106 25.8727V24.189C116.106 24.062 116.201 23.9349 116.328 23.9031C116.741 23.7443 117.186 23.5854 117.631 23.3948C118.171 23.1724 118.743 22.8548 119.314 22.41C119.918 21.9652 120.331 21.4569 120.617 20.8216C120.903 20.218 121.03 19.4238 121.03 18.4707V16.3105C121.03 16.1199 120.903 15.9928 120.712 15.9928H115.597C115.439 16.0246 115.312 15.8975 115.312 15.7069Z" fill="white"/>
<path d="M133.801 20.3133V13.1654C133.801 12.9748 133.928 12.8477 134.118 12.8477H138.312C138.502 12.8477 138.629 12.7206 138.629 12.53V10.5286C138.629 10.338 138.757 10.2109 138.947 10.2109H140.472C140.663 10.2109 140.79 10.338 140.79 10.5286V12.53C140.79 12.7206 140.917 12.8477 141.107 12.8477H145.46C145.65 12.8477 145.777 12.9748 145.777 13.1654V15.6116C145.746 17.2953 145.491 18.7884 145.047 20.0909C144.602 21.3616 143.998 22.3782 143.236 23.1089C142.505 23.8396 141.711 24.4114 140.853 24.8562C139.995 25.3009 139.201 25.6504 138.471 25.8728C137.899 26.0634 137.359 26.1904 136.882 26.254C136.692 26.2857 136.501 26.1269 136.501 25.9363V24.4432C136.501 24.2843 136.596 24.1573 136.755 24.1255C137.454 23.9984 138.153 23.776 138.82 23.4901C139.583 23.1724 140.345 22.6959 141.139 22.0605C141.933 21.4252 142.537 20.5674 142.95 19.5191C143.363 18.4707 143.585 17.1364 143.585 15.5163V15.2303C143.585 15.0397 143.458 14.9127 143.268 14.9127H136.279C136.088 14.9127 135.961 15.0397 135.961 15.2303V20.2815C135.961 20.4721 135.834 20.5992 135.643 20.5992H134.118C133.928 20.631 133.801 20.5039 133.801 20.3133Z" fill="white"/>
<path d="M162.932 10.5923C163.186 10.5923 163.314 10.8465 163.218 11.0688C162.869 11.6724 162.392 12.4349 161.757 13.2926C160.994 14.3728 160.232 15.2305 159.501 15.9294C159.438 15.9929 159.406 16.0565 159.406 16.1518V26.0318C159.406 26.2224 159.279 26.3494 159.088 26.3494H157.532C157.341 26.3494 157.214 26.2224 157.214 26.0318V18.5344C157.214 18.2803 156.928 18.1214 156.706 18.2803C155.308 19.3286 153.529 20.2817 151.432 21.1712C151.21 21.2665 150.987 21.1077 150.987 20.8853V19.2651C150.987 19.138 151.051 19.0427 151.178 18.9792C152.29 18.4709 153.37 17.9308 154.387 17.2954C155.467 16.6283 156.579 15.7388 157.754 14.5951C158.866 13.4832 159.883 12.2125 160.74 10.7194C160.804 10.6241 160.899 10.5605 161.026 10.5605H162.932V10.5923Z" fill="white"/>
<path d="M168.873 25.4915C168.651 25.4915 168.492 25.2691 168.587 25.0468C168.778 24.5702 169 24.0302 169.222 23.363C169.54 22.4735 169.794 21.4252 170.017 20.218C170.239 19.0108 170.334 17.6765 170.334 16.2469V11.291C170.334 11.1004 170.461 10.9734 170.652 10.9734H172.145C172.336 10.9734 172.463 11.1004 172.463 11.291V16.2469C172.463 18.3436 172.272 20.1227 171.986 21.6158C171.7 23.0136 171.319 24.2208 170.874 25.3009C170.811 25.428 170.716 25.4915 170.588 25.4915H168.873ZM181.104 22.95C179.515 24.4432 177.641 25.428 175.544 25.8727C175.354 25.9045 175.163 25.7457 175.163 25.555V11.0687C175.163 10.8781 175.29 10.751 175.481 10.751H176.942C177.133 10.751 177.26 10.8781 177.26 11.0687V22.3782C177.26 22.6324 177.514 22.7594 177.736 22.6641C178.753 22.1558 179.738 21.4887 180.691 20.5992C180.881 20.4086 181.231 20.5674 181.231 20.8216V22.6959C181.231 22.7912 181.167 22.8865 181.104 22.95Z" fill="white"/>
<path d="M187.108 12.8478V11.2911C187.108 11.1005 187.235 10.9735 187.426 10.9735H197.115C197.306 10.9735 197.433 10.8464 197.433 10.6558V9.4168C197.433 9.22619 197.56 9.09912 197.75 9.09912H198.513C198.703 9.09912 198.83 9.22619 198.83 9.4168V11.7041C198.83 11.8947 198.703 12.0218 198.513 12.0218H197.719C197.592 12.0218 197.464 12.1171 197.401 12.2442C197.179 13.0066 196.893 13.8326 196.543 14.6586C196.003 15.8976 195.368 17.1048 194.637 18.2484C194.574 18.3437 194.574 18.5026 194.637 18.5979C195.304 19.5192 195.908 20.2816 196.48 20.917C197.051 21.5523 197.719 22.2195 198.481 22.8866C198.545 22.9501 198.576 23.0454 198.576 23.109V25.0786C198.576 25.3328 198.259 25.4916 198.068 25.3328C197.877 25.1739 197.655 25.0151 197.401 24.7927C196.797 24.3162 196.194 23.7126 195.495 23.0137C194.891 22.3783 194.192 21.5523 193.43 20.504C193.303 20.3451 193.049 20.3451 192.922 20.504C191.969 21.6476 191.143 22.5371 190.348 23.2361C189.522 23.9667 188.728 24.5703 187.997 25.0151C187.521 25.301 187.108 25.5551 186.759 25.7458C186.536 25.8728 186.282 25.714 186.282 25.4598V23.7126C186.282 23.6173 186.346 23.4902 186.441 23.4584C187.426 22.8548 188.379 22.1559 189.3 21.2982C190.253 20.4087 191.238 19.2968 192.223 17.9625C193.112 16.7235 193.906 15.294 194.542 13.6102C194.637 13.3879 194.478 13.1655 194.256 13.1655H187.362C187.235 13.1655 187.108 13.0066 187.108 12.8478ZM199.625 11.7041V9.4168C199.625 9.22619 199.752 9.09912 199.942 9.09912H200.705C200.895 9.09912 201.023 9.22619 201.023 9.4168V11.7041C201.023 11.8947 200.895 12.0218 200.705 12.0218H199.942C199.752 12.0218 199.625 11.8947 199.625 11.7041Z" fill="white"/>
<path d="M211.284 13.8329L212.555 14.0235C212.745 14.0553 212.872 14.2141 212.84 14.4047C212.459 16.565 211.919 18.4711 211.252 20.1866C211.22 20.2819 211.22 20.409 211.284 20.5043C212.11 21.6162 212.777 22.6645 213.285 23.6176C213.349 23.7446 213.317 23.9035 213.19 23.9988L212.142 24.8883C211.983 25.0154 211.76 24.9836 211.665 24.793C211.379 24.1894 210.966 23.5223 210.49 22.7916C210.363 22.601 210.077 22.601 209.95 22.7916C208.901 24.5389 207.567 25.9684 205.978 27.0803C205.851 27.1756 205.629 27.1439 205.534 27.0168C205.28 26.6673 204.994 26.3496 204.708 26.032C204.549 25.8731 204.612 25.6507 204.771 25.5554C206.519 24.4118 207.916 22.8551 208.933 20.8855C208.996 20.7902 208.965 20.6313 208.901 20.536C207.885 19.17 206.804 17.8675 205.693 16.6285C205.565 16.5014 205.597 16.2791 205.724 16.1838L206.582 15.4849C206.709 15.3896 206.9 15.3896 206.995 15.5166C207.662 16.2155 208.488 17.1686 209.441 18.3122C209.6 18.5029 209.918 18.4393 209.981 18.1852C210.363 17.0097 210.648 15.6755 210.903 14.2141C210.934 13.9282 211.093 13.8011 211.284 13.8329ZM223.61 13.3246V14.5636C223.61 14.7542 223.483 14.8813 223.292 14.8813H221.577C221.386 14.8813 221.259 15.0083 221.259 15.1989V24.793C221.259 25.3648 221.196 25.8096 221.037 26.159C220.91 26.4767 220.655 26.7309 220.306 26.8897C219.702 27.1439 218.591 27.2709 217.002 27.3027C216.843 27.3027 216.716 27.2074 216.684 27.0486C216.589 26.6038 216.462 26.159 216.271 25.6825C216.176 25.4601 216.367 25.2378 216.589 25.2378C217.765 25.2695 218.495 25.2695 218.813 25.2695C219.162 25.2695 219.321 25.1107 219.321 24.793V15.2307C219.321 15.0401 219.194 14.913 219.004 14.913H214.206C214.016 14.913 213.889 14.786 213.889 14.5953V13.6741C213.889 13.4835 213.762 13.3564 213.571 13.3564H205.184C204.994 13.3564 204.867 13.2293 204.867 13.0387V11.895C204.867 11.7044 204.994 11.5773 205.184 11.5773H208.361C208.552 11.5773 208.679 11.4503 208.679 11.2597V8.59112C208.679 8.40051 208.806 8.27344 208.996 8.27344H210.235C210.426 8.27344 210.553 8.40051 210.553 8.59112V11.2597C210.553 11.4503 210.68 11.5773 210.871 11.5773H214.27C214.461 11.5773 214.588 11.7044 214.588 11.895V12.721C214.588 12.9116 214.715 13.0387 214.905 13.0387H219.067C219.258 13.0387 219.385 12.9116 219.385 12.721V8.59112C219.385 8.40051 219.512 8.27344 219.702 8.27344H220.973C221.164 8.27344 221.291 8.40051 221.291 8.59112V12.721C221.291 12.9116 221.418 13.0387 221.609 13.0387H223.324C223.483 13.0069 223.61 13.1658 223.61 13.3246ZM217.542 21.4255L216.462 21.9656C216.271 22.0609 216.081 21.9656 216.017 21.775C215.858 21.2349 215.604 20.6313 215.287 19.9324C214.937 19.2018 214.556 18.5029 214.143 17.8993C214.048 17.7404 214.111 17.518 214.27 17.4545L215.287 16.978C215.414 16.9144 215.604 16.9462 215.7 17.0733C216.716 18.5664 217.383 19.9007 217.733 21.0761C217.765 21.2032 217.701 21.3302 217.542 21.4255Z" fill="white"/>
<path d="M237.747 19.138V20.5994C237.747 20.6947 237.779 20.7582 237.842 20.8217C238.732 21.6795 239.907 22.4737 241.369 23.2361C242.735 23.935 244.196 24.4433 245.753 24.7928C245.975 24.8563 246.07 25.1105 245.943 25.3011C245.657 25.6505 245.403 26 245.181 26.413C245.117 26.5401 244.958 26.6036 244.831 26.5718C243.497 26.2224 242.258 25.7141 241.051 25.0787C240.003 24.5069 239.081 23.9033 238.255 23.2361C238.065 23.0773 237.747 23.2044 237.747 23.4903V27.0483C237.747 27.2072 237.62 27.366 237.429 27.366H236C235.841 27.366 235.682 27.239 235.682 27.0483V23.395C235.682 23.1408 235.364 22.982 235.174 23.1408C233.363 24.7293 231.139 25.8729 228.566 26.6354C228.439 26.6671 228.28 26.6036 228.216 26.4765C228.026 26.1271 227.772 25.7776 227.486 25.4599C227.327 25.2693 227.422 25.0152 227.645 24.9516C229.201 24.5704 230.663 23.9986 232.06 23.2679C233.554 22.4737 234.729 21.5842 235.618 20.5676C235.682 20.5041 235.682 20.4405 235.682 20.3452V19.138C235.682 18.9792 235.555 18.8203 235.364 18.8203H231.362C231.203 18.8203 231.044 18.9474 231.044 19.138V22.3466C231.044 22.5055 230.917 22.6643 230.726 22.6643H229.297C229.138 22.6643 228.979 22.5372 228.979 22.3466V17.5178C228.979 17.359 229.106 17.2001 229.297 17.2001H235.333C235.491 17.2001 235.65 17.0731 235.65 16.8825V16.1518C235.65 15.9929 235.523 15.8341 235.333 15.8341H227.962C227.803 15.8341 227.645 15.707 227.645 15.5164V14.4681C227.645 14.3092 227.772 14.1504 227.962 14.1504H235.396C235.555 14.1504 235.714 14.0233 235.714 13.8327V13.3244C235.714 13.2291 235.65 13.102 235.555 13.0703C235.491 13.0385 235.396 12.975 235.301 12.9114C235.142 12.8161 235.047 12.7526 235.015 12.7208C235.269 12.4984 235.491 12.3078 235.682 12.1172C235.873 11.9266 235.746 11.5771 235.46 11.5771H233.522C233.299 11.5771 233.141 11.8313 233.236 12.0537C233.426 12.4349 233.585 12.7526 233.712 13.0067C233.776 13.1656 233.681 13.3562 233.522 13.4197L232.41 13.8009C232.251 13.8645 232.06 13.7692 231.997 13.6103C231.775 12.975 231.489 12.3396 231.139 11.736C231.076 11.6407 230.98 11.5771 230.853 11.5771H230.504C230.408 11.5771 230.313 11.6407 230.25 11.7042C229.678 12.4984 229.138 13.1338 228.693 13.6103C228.566 13.7374 228.407 13.7374 228.28 13.6421C227.994 13.4197 227.676 13.1973 227.263 12.9432C227.073 12.8479 227.041 12.5937 227.2 12.4349C228.375 11.323 229.297 9.95695 229.995 8.33677C230.059 8.20969 230.218 8.11439 230.345 8.14616L231.584 8.46384C231.775 8.49561 231.87 8.71799 231.806 8.87683C231.743 9.03567 231.647 9.22628 231.552 9.41689C231.457 9.63927 231.616 9.86165 231.838 9.86165H235.968C236.127 9.86165 236.286 9.98872 236.286 10.1793V10.497C236.286 10.7829 236.667 10.9418 236.857 10.6876C237.398 9.92519 237.81 9.13098 238.128 8.305C238.192 8.14616 238.319 8.08262 238.478 8.11439L239.748 8.4003C239.939 8.43207 240.034 8.65445 239.971 8.81329C239.907 8.97213 239.812 9.19451 239.717 9.41689C239.621 9.63927 239.78 9.86165 240.003 9.86165H245.467C245.626 9.86165 245.784 9.98872 245.784 10.1793V11.1959C245.784 11.3548 245.657 11.5136 245.467 11.5136H242.417C242.195 11.5136 242.036 11.7678 242.131 11.9901C242.353 12.3714 242.512 12.689 242.608 12.9114C242.703 13.0703 242.608 13.2926 242.417 13.3244L241.305 13.6739C241.146 13.7374 240.987 13.6421 240.924 13.4832C240.701 12.9432 240.415 12.3396 239.971 11.6724C239.907 11.5771 239.812 11.5136 239.717 11.5136H238.7C238.605 11.5136 238.509 11.5771 238.446 11.6724C238.223 12.0219 237.906 12.4031 237.556 12.8479H237.747V13.7692C237.747 13.928 237.874 14.0868 238.065 14.0868H245.149C245.308 14.0868 245.467 14.2139 245.467 14.4045V15.4529C245.467 15.6117 245.34 15.7706 245.149 15.7706H238.065C237.906 15.7706 237.747 15.8976 237.747 16.0883V16.8189C237.747 16.9778 237.874 17.1366 238.065 17.1366H244.037C244.196 17.1366 244.355 17.2637 244.355 17.4543V20.79C244.355 21.2347 244.291 21.5842 244.196 21.8066C244.069 22.0289 243.878 22.1878 243.561 22.3149C243.116 22.4737 242.322 22.569 241.146 22.569C241.019 22.569 240.892 22.5055 240.86 22.3784C240.797 22.1878 240.67 21.9019 240.479 21.5206C240.384 21.2983 240.543 21.0759 240.765 21.0759C241.369 21.1077 241.782 21.1077 242.036 21.0759C242.258 21.0759 242.385 20.9806 242.385 20.79V19.1062C242.385 18.9474 242.258 18.7886 242.067 18.7886H238.065C237.906 18.8521 237.747 18.9792 237.747 19.138Z" fill="white"/>
<ellipse cx="22.445" cy="25.1407" rx="4.63177" ry="4.63176" transform="rotate(-120 22.445 25.1407)" fill="white"/>
<circle cx="11.0141" cy="13.8149" r="6.3739" transform="rotate(-45 11.0141 13.8149)" fill="white"/>
<path d="M6.53247 18.3472L15.5465 9.3331L25.7843 21.9298L19.234 28.4801L6.53247 18.3472Z" fill="url(#paint0_linear)"/>
<defs>
<linearGradient id="paint0_linear" x1="11.0395" y1="13.8401" x2="22.6705" y2="25.4712" gradientUnits="userSpaceOnUse">
<stop stop-color="white"/>
<stop offset="1" stop-color="white" stop-opacity="0"/>
</linearGradient>
</defs>
</svg>
