<svg width="248" height="36" viewBox="0 0 248 36" fill="none" xmlns="http://www.w3.org/2000/svg">
<g clip-path="url(#clip0)">
<g filter="url(#filter0_d)">
<ellipse cx="22.4451" cy="25.1406" rx="4.63177" ry="4.63176" transform="rotate(-120 22.4451 25.1406)" fill="url(#paint0_linear)"/>
</g>
<circle cx="11.0141" cy="13.8147" r="6.3739" transform="rotate(-45 11.0141 13.8147)" fill="#1D6CF7"/>
<path d="M6.53247 18.347L15.5465 9.33292L25.7843 21.9297L19.234 28.48L6.53247 18.347Z" fill="url(#paint1_linear)"/>
<g clip-path="url(#clip1)">
<path d="M42.0371 23.1581L41.332 24.0554C41.2039 24.2156 40.9795 24.2156 40.8513 24.0554C40.5629 23.7028 40.1463 23.2862 39.6015 22.7735C39.4092 22.5812 39.0888 22.7094 39.0888 22.9978V26.9396C39.0888 27.0998 38.9606 27.26 38.7683 27.26H37.5185C37.3583 27.26 37.198 27.1318 37.198 26.9396V23.3183C37.198 23.0299 36.8135 22.9017 36.6212 23.126C35.8841 24.1195 35.115 24.9527 34.3138 25.6256C34.1857 25.7538 33.9613 25.7218 33.8652 25.5615C33.6409 25.2731 33.3845 24.9847 33.0961 24.7283C32.9358 24.6001 32.9679 24.3438 33.1281 24.2476C33.737 23.799 34.3459 23.2542 34.9548 22.5812C35.5316 21.9403 36.0444 21.2673 36.493 20.5623C36.6212 20.338 36.493 20.0816 36.2366 20.0816H33.6088C33.4486 20.0816 33.2883 19.9534 33.2883 19.7611V18.7356C33.2883 18.5754 33.4165 18.4152 33.6088 18.4152H36.8776C37.0378 18.4152 37.198 18.287 37.198 18.0947V16.8128C37.198 16.6526 37.0698 16.4924 36.8776 16.4924H33.5447C33.3845 16.4924 33.2243 16.3642 33.2243 16.1719V15.1464C33.2243 14.9862 33.3524 14.8259 33.5447 14.8259H35.0509C35.2432 14.8259 35.4034 14.6657 35.3714 14.4734C35.2752 13.8645 35.083 13.2236 34.7945 12.4545C34.7304 12.2943 34.8266 12.0699 35.0189 12.0379L36.0764 11.7495H33.8331C33.6729 11.7495 33.5127 11.6213 33.5127 11.429V10.4676C33.5127 10.3074 33.6409 10.1471 33.8331 10.1471H36.8776C37.0378 10.1471 37.198 10.019 37.198 9.82667V8.48071C37.198 8.32048 37.3262 8.16025 37.5185 8.16025H38.7683C38.9285 8.16025 39.0888 8.28843 39.0888 8.48071V9.82667C39.0888 9.9869 39.217 10.1471 39.4092 10.1471H42.4537C42.6139 10.1471 42.7741 10.2753 42.7741 10.4676V11.461C42.7741 11.6213 42.646 11.7815 42.4537 11.7815H40.2425L41.3641 12.0379C41.5564 12.0699 41.6525 12.2943 41.5884 12.4545C41.2679 13.2877 40.9795 13.9286 40.7872 14.4093C40.6911 14.6016 40.8513 14.858 41.0757 14.858H42.71C42.8703 14.858 43.0305 14.9862 43.0305 15.1785V16.2039C43.0305 16.3642 42.9023 16.5244 42.71 16.5244H39.3772C39.217 16.5244 39.0567 16.6526 39.0567 16.8449V18.1267C39.0567 18.287 39.1849 18.4472 39.3772 18.4472H42.4537C42.6139 18.4472 42.7741 18.5754 42.7741 18.7677V19.7932C42.7741 19.9534 42.646 20.1136 42.4537 20.1136H39.0888V20.4661C39.3131 20.6264 39.6336 20.8827 40.0822 21.2353C40.5309 21.5878 40.9795 21.9403 41.4602 22.3248C41.7166 22.5171 41.9089 22.6774 42.0371 22.7735C42.1332 22.8055 42.1332 22.9978 42.0371 23.1581ZM39.5054 11.7495H36.6532C36.4289 11.7495 36.2687 11.9738 36.3648 12.1981C36.6853 12.9352 36.8776 13.6082 36.9737 14.2491C37.0058 14.4093 36.9096 14.5375 36.7494 14.6016L35.788 14.858H40.4027L39.3452 14.6016C39.1529 14.5696 39.0567 14.3452 39.1208 14.185C39.4092 13.4479 39.6336 12.807 39.8259 12.1981C39.8579 11.9417 39.7297 11.7495 39.5054 11.7495ZM52.324 15.2746V16.4603C52.324 16.6205 52.1958 16.7808 52.0036 16.7808H50.4333C50.273 16.7808 50.1128 16.909 50.1128 17.1012V26.8755C50.1128 27.0357 49.9846 27.1959 49.7923 27.1959H48.5425C48.3823 27.1959 48.2221 27.0677 48.2221 26.8755V17.1012C48.2221 16.941 48.0939 16.7808 47.9016 16.7808H45.4981V16.9731C45.4981 21.4916 44.5047 24.8565 42.4857 27.0677C42.3575 27.1959 42.1332 27.1959 42.005 27.0357C41.9089 26.9075 41.7807 26.7473 41.5884 26.587C41.4282 26.4268 41.2679 26.2666 41.1077 26.1704C40.9475 26.0743 40.9475 25.85 41.0757 25.7218C41.5564 25.177 41.973 24.5681 42.3255 23.9272C42.71 23.1581 42.9985 22.3569 43.1907 21.5237C43.383 20.6905 43.4792 19.9213 43.5433 19.2484C43.6073 18.5754 43.6394 17.8063 43.6394 16.941V10.1151C43.6394 9.92281 43.8317 9.76258 44.024 9.82667L44.8572 10.051C44.9213 10.051 44.9533 10.051 45.0174 10.051C47.4529 9.47416 49.2155 8.89732 50.3051 8.35253C50.4333 8.28843 50.5615 8.32048 50.6576 8.38457C50.914 8.6089 51.3626 9.02551 51.7151 9.31393C51.8754 9.47416 51.8433 9.76258 51.619 9.82667C50.2089 10.4035 48.3182 10.9483 45.9788 11.429C45.6904 11.4931 45.4661 11.7495 45.4661 12.0699C45.4661 12.6788 45.4661 13.6723 45.4661 14.3132C45.4661 14.6657 45.7545 14.9541 46.107 14.9541H51.9395C52.1638 14.9862 52.324 15.1144 52.324 15.2746Z" fill="#21262D"/>
<path d="M67.3538 24.7604H75.045C75.2373 24.7604 75.3655 24.8886 75.3655 25.0808V26.2345C75.3655 26.4268 75.2373 26.555 75.045 26.555H56.9066C56.7144 26.555 56.5862 26.4268 56.5862 26.2345V25.0808C56.5862 24.8886 56.7144 24.7604 56.9066 24.7604H64.694C64.8862 24.7604 65.0144 24.6322 65.0144 24.4399V22.8376C65.0144 22.6453 64.8862 22.5171 64.694 22.5171H59.0538C58.8615 22.5171 58.7333 22.3889 58.7333 22.1966V21.043C58.7333 20.8507 58.8615 20.7225 59.0538 20.7225H64.694C64.8862 20.7225 65.0144 20.5943 65.0144 20.402V19.4086C65.0144 19.2163 64.8862 19.0881 64.694 19.0881H63.7646C63.5723 19.0881 63.4442 18.9599 63.4442 18.7677V15.1784C63.4442 14.9862 63.316 14.858 63.1237 14.858H61.3611C61.2009 14.858 61.0727 14.9541 61.0407 15.1144C60.6561 17.0371 59.6947 18.4792 58.1244 19.4727C57.9962 19.5688 57.804 19.5368 57.7078 19.4086C57.5796 19.2804 57.4514 19.1202 57.2592 18.9279C57.131 18.7997 57.0028 18.6715 56.9066 18.5754C56.7464 18.4472 56.7785 18.1908 56.9387 18.0947C58.0283 17.3897 58.7654 16.4603 59.1179 15.3066C59.182 15.1144 59.0217 14.89 58.7974 14.89H57.163C56.9707 14.89 56.8426 14.7618 56.8426 14.5696V13.4479C56.8426 13.2556 56.9707 13.1275 57.163 13.1275H59.0538C59.246 13.1275 59.3742 12.9993 59.3742 12.807V10.8842C59.3742 10.6919 59.246 10.5637 59.0538 10.5637H57.836C57.6437 10.5637 57.5155 10.4355 57.5155 10.2433V9.15369C57.5155 8.96141 57.6437 8.83322 57.836 8.83322H66.5847C66.777 8.83322 66.9052 8.96141 66.9052 9.15369V10.2433C66.9052 10.4355 66.777 10.5637 66.5847 10.5637H65.4951C65.3029 10.5637 65.1747 10.6919 65.1747 10.8842V12.807C65.1747 12.9993 65.3029 13.1275 65.4951 13.1275H67.0334C67.2256 13.1275 67.3538 13.2556 67.3538 13.4479V14.5375C67.3538 14.7298 67.2256 14.858 67.0334 14.858H65.4951C65.3029 14.858 65.1747 14.9862 65.1747 15.1784V18.4152C65.1747 18.6074 65.3029 18.7356 65.4951 18.7356H66.6168C66.809 18.7356 66.9372 18.8638 66.9372 19.0561V20.4341C66.9372 20.6264 67.0654 20.7546 67.2577 20.7546H72.7697C72.962 20.7546 73.0902 20.8827 73.0902 21.075V22.2287C73.0902 22.421 72.962 22.5492 72.7697 22.5492H67.2577C67.0654 22.5492 66.9372 22.6773 66.9372 22.8696V24.472C67.0334 24.6322 67.1616 24.7604 67.3538 24.7604ZM61.5534 13.1275H63.1237C63.316 13.1275 63.4442 12.9993 63.4442 12.807V10.8842C63.4442 10.6919 63.316 10.5637 63.1237 10.5637H61.5534C61.3611 10.5637 61.2329 10.6919 61.2329 10.8842V12.807C61.2329 12.9993 61.3932 13.1275 61.5534 13.1275ZM70.3662 9.57029V15.9155C70.3662 16.1078 70.238 16.236 70.0457 16.236H68.8921C68.6998 16.236 68.5716 16.1078 68.5716 15.9155V9.57029C68.5716 9.37801 68.6998 9.24983 68.8921 9.24983H70.0457C70.206 9.24983 70.3662 9.37801 70.3662 9.57029ZM73.9234 8.22433C74.1157 8.22433 74.2439 8.35252 74.2439 8.5448V17.2935C74.2439 17.8063 74.1798 18.1908 74.0516 18.4472C73.9234 18.7356 73.6991 18.9279 73.3465 19.0561C72.8658 19.2484 71.8724 19.3445 70.4303 19.3765C70.2701 19.3765 70.1419 19.2804 70.1098 19.1202C70.0457 18.7677 69.9176 18.4152 69.7573 18.0626C69.6612 17.8383 69.8214 17.614 70.0778 17.614C70.9751 17.646 71.584 17.646 71.9685 17.614C72.1288 17.614 72.257 17.5819 72.289 17.5178C72.3531 17.4538 72.3851 17.3576 72.3851 17.2294V8.5448C72.3851 8.35252 72.5133 8.22433 72.7056 8.22433H73.9234Z" fill="#21262D"/>
<path d="M80.3328 12.9993V11.461C80.3328 11.2688 80.4609 11.1406 80.6532 11.1406H91.5811C91.7734 11.1406 91.9016 11.2688 91.9016 11.461V24.8245C91.9016 25.0167 91.7734 25.1449 91.5811 25.1449H80.6532C80.4609 25.1449 80.3328 25.0167 80.3328 24.8245V23.2862C80.3328 23.0939 80.4609 22.9658 80.6532 22.9658H89.3699C89.5622 22.9658 89.6904 22.8376 89.6904 22.6453V13.6722C89.6904 13.48 89.5622 13.3518 89.3699 13.3518H80.6532C80.4609 13.3197 80.3328 13.1915 80.3328 12.9993Z" fill="#21262D"/>
<path d="M110.168 25.1449H98.9198C98.7276 25.1449 98.5994 25.0167 98.5994 24.8245V11.461C98.5994 11.2688 98.7276 11.1406 98.9198 11.1406H110.168C110.36 11.1406 110.489 11.2688 110.489 11.461V24.8245C110.489 25.0167 110.36 25.1449 110.168 25.1449ZM107.829 13.3838H101.227C101.035 13.3838 100.907 13.512 100.907 13.7043V22.6132C100.907 22.8055 101.035 22.9337 101.227 22.9337H107.829C108.021 22.9337 108.149 22.8055 108.149 22.6132V13.7043C108.149 13.512 108.021 13.3838 107.829 13.3838Z" fill="#21262D"/>
<path d="M116.449 15.563V13.9927C116.449 13.8004 116.577 13.6722 116.77 13.6722H121.929C122.121 13.6722 122.25 13.544 122.25 13.3518V10.3394C122.25 10.1471 122.378 10.0189 122.57 10.0189H124.172C124.365 10.0189 124.493 10.1471 124.493 10.3394V13.3518C124.493 13.544 124.621 13.6722 124.813 13.6722H129.396C129.588 13.6722 129.717 13.8004 129.717 13.9927V15.563C129.717 15.7553 129.588 15.8834 129.396 15.8834H124.813C124.621 15.8834 124.493 16.0116 124.493 16.2039V18.8958C124.461 20.2738 124.14 21.3955 123.596 22.2287C123.051 23.0619 122.378 23.7669 121.641 24.2476C120.904 24.7604 120.135 25.177 119.365 25.4654C118.757 25.7217 118.212 25.914 117.667 26.1063C117.443 26.1704 117.25 26.0422 117.25 25.8179V24.1194C117.25 23.9912 117.347 23.863 117.475 23.831C117.891 23.6708 118.34 23.5105 118.789 23.3183C119.333 23.0939 119.91 22.7735 120.487 22.3248C121.096 21.8762 121.513 21.3634 121.801 20.7225C122.089 20.1136 122.218 19.3124 122.218 18.351V16.1719C122.218 15.9796 122.089 15.8514 121.897 15.8514H116.738C116.577 15.8834 116.449 15.7553 116.449 15.563Z" fill="#21262D"/>
<path d="M135.1 20.2097V12.9993C135.1 12.807 135.229 12.6788 135.421 12.6788H139.651C139.843 12.6788 139.971 12.5506 139.971 12.3583V10.3394C139.971 10.1471 140.1 10.0189 140.292 10.0189H141.83C142.022 10.0189 142.151 10.1471 142.151 10.3394V12.3583C142.151 12.5506 142.279 12.6788 142.471 12.6788H146.861C147.054 12.6788 147.182 12.807 147.182 12.9993V15.4668C147.15 17.1653 146.893 18.6715 146.445 19.9854C145.996 21.2673 145.387 22.2928 144.618 23.0298C143.881 23.7669 143.08 24.3437 142.215 24.7924C141.349 25.2411 140.548 25.5936 139.811 25.8179C139.234 26.0102 138.69 26.1384 138.209 26.2024C138.017 26.2345 137.824 26.0743 137.824 25.882V24.3758C137.824 24.2156 137.92 24.0874 138.081 24.0553C138.786 23.9271 139.491 23.7028 140.164 23.4144C140.933 23.0939 141.702 22.6132 142.503 21.9723C143.304 21.3314 143.913 20.4661 144.33 19.4086C144.746 18.351 144.971 17.0051 144.971 15.3707V15.0823C144.971 14.89 144.843 14.7618 144.65 14.7618H137.6C137.408 14.7618 137.28 14.89 137.28 15.0823V20.1777C137.28 20.37 137.151 20.4982 136.959 20.4982H135.421C135.229 20.5302 135.1 20.402 135.1 20.2097Z" fill="#21262D"/>
<path d="M164.487 10.4035C164.744 10.4035 164.872 10.6599 164.776 10.8842C164.423 11.4931 163.942 12.2622 163.302 13.1275C162.532 14.2171 161.763 15.0823 161.026 15.7873C160.962 15.8514 160.93 15.9155 160.93 16.0117V25.9781C160.93 26.1704 160.802 26.2986 160.61 26.2986H159.039C158.847 26.2986 158.719 26.1704 158.719 25.9781V18.4152C158.719 18.1588 158.43 17.9985 158.206 18.1588C156.796 19.2163 155.001 20.1777 152.886 21.075C152.662 21.1712 152.438 21.0109 152.438 20.7866V19.1522C152.438 19.024 152.502 18.9279 152.63 18.8638C153.752 18.3511 154.841 17.8063 155.867 17.1653C156.956 16.4924 158.078 15.5951 159.264 14.4414C160.385 13.3197 161.411 12.0379 162.276 10.5317C162.34 10.4356 162.436 10.3715 162.564 10.3715H164.487V10.4035Z" fill="#21262D"/>
<path d="M170.48 25.4333C170.256 25.4333 170.095 25.209 170.192 24.9847C170.384 24.504 170.608 23.9592 170.832 23.2862C171.153 22.3889 171.409 21.3314 171.634 20.1136C171.858 18.8958 171.954 17.5499 171.954 16.1078V11.1085C171.954 10.9162 172.082 10.788 172.275 10.788H173.781C173.973 10.788 174.101 10.9162 174.101 11.1085V16.1078C174.101 18.2229 173.909 20.0175 173.621 21.5237C173.332 22.9337 172.948 24.1515 172.499 25.2411C172.435 25.3692 172.339 25.4333 172.21 25.4333H170.48ZM182.818 22.8696C181.216 24.3758 179.325 25.3692 177.21 25.8179C177.017 25.8499 176.825 25.6897 176.825 25.4974V10.8842C176.825 10.6919 176.953 10.5637 177.146 10.5637H178.62C178.812 10.5637 178.94 10.6919 178.94 10.8842V22.2928C178.94 22.5491 179.197 22.6773 179.421 22.5812C180.446 22.0684 181.44 21.3955 182.401 20.4982C182.594 20.3059 182.946 20.4661 182.946 20.7225V22.6132C182.946 22.7094 182.882 22.8055 182.818 22.8696Z" fill="#21262D"/>
<path d="M213.262 13.6722L214.544 13.8645C214.736 13.8966 214.864 14.0568 214.832 14.2491C214.448 16.4282 213.903 18.351 213.23 20.0816C213.198 20.1777 213.198 20.3059 213.262 20.402C214.095 21.5237 214.768 22.5812 215.281 23.5426C215.345 23.6708 215.313 23.831 215.185 23.9271L214.127 24.8245C213.967 24.9526 213.743 24.9206 213.647 24.7283C213.358 24.1194 212.942 23.4465 212.461 22.7094C212.333 22.5171 212.044 22.5171 211.916 22.7094C210.859 24.4719 209.513 25.914 207.91 27.0357C207.782 27.1318 207.558 27.0998 207.462 26.9716C207.205 26.6191 206.917 26.2986 206.628 25.9781C206.468 25.8179 206.532 25.5936 206.693 25.4974C208.455 24.3438 209.865 22.7735 210.891 20.7866C210.955 20.6904 210.923 20.5302 210.859 20.4341C209.833 19.0561 208.744 17.7422 207.622 16.4923C207.494 16.3642 207.526 16.1398 207.654 16.0437L208.519 15.3387C208.647 15.2425 208.84 15.2425 208.936 15.3707C209.609 16.0757 210.442 17.0371 211.403 18.1908C211.564 18.3831 211.884 18.319 211.948 18.0626C212.333 16.8769 212.621 15.5309 212.878 14.0568C212.91 13.7684 213.07 13.6402 213.262 13.6722ZM225.696 13.1595V14.4093C225.696 14.6016 225.568 14.7298 225.376 14.7298H223.645C223.453 14.7298 223.325 14.858 223.325 15.0502V24.7283C223.325 25.3052 223.261 25.7538 223.1 26.1063C222.972 26.4268 222.716 26.6832 222.363 26.8434C221.754 27.0998 220.633 27.2279 219.03 27.26C218.87 27.26 218.742 27.1639 218.71 27.0036C218.614 26.555 218.486 26.1063 218.293 25.6256C218.197 25.4013 218.39 25.177 218.614 25.177C219.8 25.209 220.537 25.209 220.857 25.209C221.21 25.209 221.37 25.0488 221.37 24.7283V15.0823C221.37 14.89 221.242 14.7618 221.049 14.7618H216.21C216.018 14.7618 215.89 14.6336 215.89 14.4414V13.512C215.89 13.3197 215.762 13.1915 215.569 13.1915H207.109C206.917 13.1915 206.789 13.0634 206.789 12.8711V11.7174C206.789 11.5251 206.917 11.3969 207.109 11.3969H210.314C210.506 11.3969 210.634 11.2687 210.634 11.0765V8.38455C210.634 8.19227 210.762 8.06409 210.955 8.06409H212.205C212.397 8.06409 212.525 8.19227 212.525 8.38455V11.0765C212.525 11.2687 212.653 11.3969 212.846 11.3969H216.274C216.467 11.3969 216.595 11.5251 216.595 11.7174V12.5506C216.595 12.7429 216.723 12.8711 216.915 12.8711H221.114C221.306 12.8711 221.434 12.7429 221.434 12.5506V8.38455C221.434 8.19227 221.562 8.06409 221.754 8.06409H223.036C223.229 8.06409 223.357 8.19227 223.357 8.38455V12.5506C223.357 12.7429 223.485 12.8711 223.677 12.8711H225.408C225.568 12.839 225.696 12.9993 225.696 13.1595ZM219.575 21.3314L218.486 21.8762C218.293 21.9723 218.101 21.8762 218.037 21.6839C217.877 21.1391 217.62 20.5302 217.3 19.8252C216.947 19.0881 216.563 18.3831 216.146 17.7742C216.05 17.614 216.114 17.3896 216.274 17.3256L217.3 16.8449C217.428 16.7808 217.62 16.8128 217.717 16.941C218.742 18.4472 219.415 19.7931 219.768 20.9789C219.8 21.107 219.736 21.2352 219.575 21.3314Z" fill="#21262D"/>
<path d="M239.957 19.024V20.4982C239.957 20.5943 239.989 20.6584 240.053 20.7225C240.95 21.5877 242.136 22.3889 243.61 23.158C244.988 23.8631 246.462 24.3758 248.033 24.7283C248.257 24.7924 248.353 25.0488 248.225 25.2411C247.937 25.5936 247.68 25.9461 247.456 26.3627C247.392 26.4909 247.231 26.555 247.103 26.5229C245.757 26.1704 244.508 25.6577 243.29 25.0167C242.232 24.4399 241.303 23.831 240.47 23.158C240.277 22.9978 239.957 23.126 239.957 23.4144V27.0036C239.957 27.1639 239.829 27.3241 239.636 27.3241H238.194C238.034 27.3241 237.874 27.1959 237.874 27.0036V23.3183C237.874 23.0619 237.553 22.9017 237.361 23.0619C235.534 24.6642 233.291 25.8179 230.695 26.587C230.567 26.6191 230.407 26.555 230.343 26.4268C230.151 26.0743 229.894 25.7218 229.606 25.4013C229.446 25.209 229.542 24.9526 229.766 24.8885C231.336 24.504 232.811 23.9272 234.221 23.1901C235.727 22.3889 236.912 21.4916 237.81 20.4661C237.874 20.402 237.874 20.3379 237.874 20.2418V19.024C237.874 18.8638 237.746 18.7036 237.553 18.7036H233.516C233.355 18.7036 233.195 18.8317 233.195 19.024V22.2607C233.195 22.421 233.067 22.5812 232.875 22.5812H231.433C231.272 22.5812 231.112 22.453 231.112 22.2607V17.3896C231.112 17.2294 231.24 17.0692 231.433 17.0692H237.521C237.682 17.0692 237.842 16.941 237.842 16.7487V16.0116C237.842 15.8514 237.714 15.6912 237.521 15.6912H230.087C229.926 15.6912 229.766 15.563 229.766 15.3707V14.3132C229.766 14.1529 229.894 13.9927 230.087 13.9927H237.585C237.746 13.9927 237.906 13.8645 237.906 13.6722V13.1595C237.906 13.0634 237.842 12.9352 237.746 12.9031C237.682 12.8711 237.585 12.807 237.489 12.7429C237.329 12.6468 237.233 12.5827 237.201 12.5506C237.457 12.3263 237.682 12.134 237.874 11.9417C238.066 11.7494 237.938 11.3969 237.65 11.3969H235.695C235.47 11.3969 235.31 11.6533 235.406 11.8776C235.599 12.2622 235.759 12.5827 235.887 12.839C235.951 12.9993 235.855 13.1915 235.695 13.2556L234.573 13.6402C234.413 13.7043 234.221 13.6081 234.156 13.4479C233.932 12.807 233.644 12.1661 233.291 11.5572C233.227 11.461 233.131 11.3969 233.003 11.3969H232.65C232.554 11.3969 232.458 11.461 232.394 11.5251C231.817 12.3263 231.272 12.9672 230.824 13.4479C230.695 13.5761 230.535 13.5761 230.407 13.48C230.119 13.2556 229.798 13.0313 229.382 12.7749C229.189 12.6788 229.157 12.4224 229.317 12.2622C230.503 11.1406 231.433 9.76256 232.138 8.12818C232.202 7.99999 232.362 7.90386 232.49 7.9359L233.74 8.25637C233.932 8.28841 234.028 8.51274 233.964 8.67297C233.9 8.83321 233.804 9.02549 233.708 9.21777C233.612 9.44209 233.772 9.66642 233.996 9.66642H238.162C238.323 9.66642 238.483 9.7946 238.483 9.98688V10.3073C238.483 10.5958 238.867 10.756 239.06 10.4996C239.604 9.73051 240.021 8.92935 240.341 8.09613C240.406 7.9359 240.534 7.87181 240.694 7.90386L241.976 8.19227C242.168 8.22432 242.264 8.44865 242.2 8.60888C242.136 8.76911 242.04 8.99344 241.944 9.21777C241.848 9.44209 242.008 9.66642 242.232 9.66642H247.744C247.904 9.66642 248.065 9.7946 248.065 9.98688V11.0124C248.065 11.1726 247.937 11.3328 247.744 11.3328H244.668C244.443 11.3328 244.283 11.5892 244.379 11.8135C244.604 12.1981 244.764 12.5186 244.86 12.7429C244.956 12.9031 244.86 13.1274 244.668 13.1595L243.546 13.512C243.386 13.5761 243.226 13.48 243.162 13.3197C242.937 12.7749 242.649 12.1661 242.2 11.4931C242.136 11.3969 242.04 11.3328 241.944 11.3328H240.918C240.822 11.3328 240.726 11.3969 240.662 11.4931C240.438 11.8456 240.117 12.2301 239.765 12.6788H239.957V13.6081C239.957 13.7684 240.085 13.9286 240.277 13.9286H247.424C247.584 13.9286 247.744 14.0568 247.744 14.2491V15.3066C247.744 15.4669 247.616 15.6271 247.424 15.6271H240.277C240.117 15.6271 239.957 15.7553 239.957 15.9475V16.6846C239.957 16.8449 240.085 17.0051 240.277 17.0051H246.302C246.462 17.0051 246.623 17.1333 246.623 17.3256V20.6904C246.623 21.1391 246.559 21.4916 246.462 21.7159C246.334 21.9403 246.142 22.1005 245.821 22.2287C245.373 22.3889 244.572 22.4851 243.386 22.4851C243.258 22.4851 243.13 22.421 243.097 22.2928C243.033 22.1005 242.905 21.8121 242.713 21.4275C242.617 21.2032 242.777 20.9789 243.001 20.9789C243.61 21.0109 244.027 21.0109 244.283 20.9789C244.508 20.9789 244.636 20.8827 244.636 20.6904V18.992C244.636 18.8317 244.508 18.6715 244.315 18.6715H240.277C240.117 18.7356 239.957 18.8638 239.957 19.024Z" fill="#21262D"/>
<path d="M188.939 12.3904V10.756C188.939 10.5958 189.067 10.4676 189.227 10.4676H199.386C199.578 10.4676 199.706 10.6278 199.674 10.8201C199.45 11.8776 199.065 13.0313 198.553 14.2491C198.008 15.531 197.335 16.7487 196.63 17.9024C196.566 17.9985 196.566 18.1267 196.63 18.2229C197.303 19.1522 197.944 19.9534 198.521 20.5943C199.13 21.2673 199.803 21.9082 200.572 22.5812C200.636 22.6453 200.668 22.7094 200.668 22.8055V24.8886C200.668 25.1449 200.379 25.2731 200.187 25.1129C199.995 24.9527 199.738 24.7604 199.45 24.504C198.841 24.0233 198.2 23.4144 197.527 22.7094C196.886 22.0685 196.181 21.2032 195.38 20.1136C195.252 19.9534 195.028 19.9534 194.931 20.1136C193.97 21.2993 193.073 22.2287 192.304 22.9017C191.438 23.6387 190.669 24.2476 189.932 24.6963C189.419 25.0167 188.971 25.2731 188.618 25.4654C188.426 25.5615 188.202 25.4333 188.202 25.209V23.3503C188.202 23.2542 188.266 23.158 188.33 23.0939C189.355 22.4851 190.317 21.748 191.246 20.8827C192.24 19.9854 193.233 18.8318 194.226 17.4858C195.156 16.236 195.957 14.7298 196.598 12.9993C196.662 12.807 196.534 12.6147 196.342 12.6147H189.227C189.067 12.6788 188.939 12.5506 188.939 12.3904Z" fill="#21262D"/>
</g>
</g>
<defs>
<filter id="filter0_d" x="-2.1875" y="0.508057" width="49.2651" height="49.2651" filterUnits="userSpaceOnUse" color-interpolation-filters="sRGB">
<feFlood flood-opacity="0" result="BackgroundImageFix"/>
<feColorMatrix in="SourceAlpha" type="matrix" values="0 0 0 0 0 0 0 0 0 0 0 0 0 0 0 0 0 0 127 0"/>
<feOffset/>
<feGaussianBlur stdDeviation="10"/>
<feColorMatrix type="matrix" values="0 0 0 0 1 0 0 0 0 1 0 0 0 0 1 0 0 0 1 0"/>
<feBlend mode="normal" in2="BackgroundImageFix" result="effect1_dropShadow"/>
<feBlend mode="normal" in="SourceGraphic" in2="effect1_dropShadow" result="shape"/>
</filter>
<linearGradient id="paint0_linear" x1="22.4451" y1="20.5088" x2="17.8133" y2="29.7724" gradientUnits="userSpaceOnUse">
<stop offset="0.104167" stop-color="#1D6CF7"/>
<stop offset="1" stop-color="#1DF7F7"/>
</linearGradient>
<linearGradient id="paint1_linear" x1="11.0395" y1="13.84" x2="22.6705" y2="25.471" gradientUnits="userSpaceOnUse">
<stop stop-color="#1D6CF7"/>
<stop offset="1" stop-color="#1D6CF7" stop-opacity="0"/>
</linearGradient>
<clipPath id="clip0">
<path d="M0 0H248V36H0V0Z" fill="white"/>
</clipPath>
<clipPath id="clip1">
<rect x="33" y="8" width="215.257" height="19.26" fill="white"/>
</clipPath>
</defs>
</svg>
