<svg width="343" height="50" viewBox="0 0 343 50" fill="none" xmlns="http://www.w3.org/2000/svg">
<g clip-path="url(#clip0)">
<g filter="url(#filter0_d)">
<ellipse cx="32.6002" cy="34.4585" rx="6.25278" ry="6.25278" transform="rotate(-120 32.6002 34.4585)" fill="url(#paint0_linear)"/>
</g>
<circle cx="17.1688" cy="19.1688" r="8.60463" transform="rotate(-45 17.1688 19.1688)" fill="#1D6CF7"/>
<path d="M11.1187 25.2873L23.2874 13.1185L37.1082 30.1239L28.2655 38.9666L11.1187 25.2873Z" fill="url(#paint1_linear)"/>
<path d="M59.1063 32.4247L58.1628 33.6256C57.9913 33.84 57.6911 33.84 57.5195 33.6256C57.1336 33.1538 56.576 32.5963 55.847 31.9101C55.5896 31.6528 55.1608 31.8243 55.1608 32.2103V37.4854C55.1608 37.6998 54.9892 37.9142 54.7319 37.9142H53.0593C52.8449 37.9142 52.6305 37.7427 52.6305 37.4854V32.6392C52.6305 32.2532 52.1158 32.0816 51.8585 32.3818C50.8721 33.7113 49.8428 34.8264 48.7707 35.727C48.5991 35.8985 48.2989 35.8557 48.1703 35.6412C47.8701 35.2552 47.527 34.8693 47.141 34.5262C46.9265 34.3546 46.9694 34.0115 47.1839 33.8829C47.9987 33.2825 48.8136 32.5534 49.6284 31.6528C50.4004 30.795 51.0865 29.8944 51.687 28.9509C51.8585 28.6507 51.687 28.3076 51.3439 28.3076H47.8272C47.6127 28.3076 47.3983 28.1361 47.3983 27.8788V26.5064C47.3983 26.292 47.5698 26.0775 47.8272 26.0775H52.2016C52.416 26.0775 52.6305 25.906 52.6305 25.6487V23.9332C52.6305 23.7188 52.4589 23.5043 52.2016 23.5043H47.7414C47.527 23.5043 47.3125 23.3328 47.3125 23.0755V21.7031C47.3125 21.4887 47.4841 21.2742 47.7414 21.2742H49.7571C50.0144 21.2742 50.2288 21.0598 50.1859 20.8025C50.0573 19.9876 49.7999 19.1299 49.414 18.1006C49.3282 17.8862 49.4569 17.586 49.7142 17.5431L51.1294 17.1571H48.1274C47.9129 17.1571 47.6985 16.9856 47.6985 16.7282V15.4416C47.6985 15.2272 47.8701 15.0128 48.1274 15.0128H52.2016C52.416 15.0128 52.6305 14.8412 52.6305 14.5839V12.7827C52.6305 12.5682 52.802 12.3538 53.0593 12.3538H54.7319C54.9463 12.3538 55.1608 12.5254 55.1608 12.7827V14.5839C55.1608 14.7983 55.3323 15.0128 55.5896 15.0128H59.6639C59.8783 15.0128 60.0927 15.1843 60.0927 15.4416V16.7711C60.0927 16.9856 59.9212 17.2 59.6639 17.2H56.7047L58.2057 17.5431C58.463 17.586 58.5917 17.8862 58.5059 18.1006C58.0771 19.2157 57.6911 20.0734 57.4338 20.7167C57.3051 20.974 57.5195 21.3171 57.8197 21.3171H60.007C60.2214 21.3171 60.4358 21.4887 60.4358 21.746V23.1183C60.4358 23.3328 60.2643 23.5472 60.007 23.5472H55.5468C55.3323 23.5472 55.1179 23.7188 55.1179 23.9761V25.6915C55.1179 25.906 55.2894 26.1204 55.5468 26.1204H59.6639C59.8783 26.1204 60.0927 26.292 60.0927 26.5493V27.9216C60.0927 28.1361 59.9212 28.3505 59.6639 28.3505H55.1608V28.8223C55.461 29.0367 55.8898 29.3798 56.4903 29.8515C57.0907 30.3233 57.6911 30.795 58.3344 31.3097C58.6775 31.567 58.9348 31.7814 59.1063 31.9101C59.235 31.953 59.235 32.2103 59.1063 32.4247ZM55.7183 17.1571H51.9014C51.6012 17.1571 51.3868 17.4573 51.5154 17.7575C51.9443 18.7439 52.2016 19.6445 52.3303 20.5023C52.3731 20.7167 52.2445 20.8882 52.0301 20.974L50.7435 21.3171H56.9191L55.5039 20.974C55.2465 20.9311 55.1179 20.6309 55.2037 20.4165C55.5896 19.4301 55.8898 18.5724 56.1472 17.7575C56.1901 17.4144 56.0185 17.1571 55.7183 17.1571ZM72.8729 21.8746V23.4614C72.8729 23.6759 72.7014 23.8903 72.4441 23.8903H70.3426C70.1282 23.8903 69.9138 24.0618 69.9138 24.3192V37.3996C69.9138 37.614 69.7422 37.8284 69.4849 37.8284H67.8123C67.5979 37.8284 67.3835 37.6569 67.3835 37.3996V24.3192C67.3835 24.1047 67.2119 23.8903 66.9546 23.8903H63.7381V24.1476C63.7381 30.1946 62.4086 34.6977 59.7068 37.6569C59.5352 37.8284 59.235 37.8284 59.0635 37.614C58.9348 37.4425 58.7632 37.228 58.5059 37.0136C58.2915 36.7992 58.0771 36.5847 57.8626 36.4561C57.6482 36.3274 57.6482 36.0272 57.8197 35.8557C58.463 35.1266 59.0206 34.3117 59.4923 33.454C60.007 32.4247 60.3929 31.3526 60.6503 30.2375C60.9076 29.1225 61.0362 28.0932 61.122 27.1926C61.2078 26.292 61.2507 25.2627 61.2507 24.1047V14.9699C61.2507 14.7126 61.508 14.4981 61.7653 14.5839L62.8804 14.8841C62.9661 14.8841 63.009 14.8841 63.0948 14.8841C66.3542 14.1122 68.7129 13.3402 70.1711 12.6111C70.3426 12.5254 70.5142 12.5682 70.6428 12.654C70.9859 12.9542 71.5863 13.5117 72.0581 13.8977C72.2725 14.1122 72.2296 14.4981 71.9294 14.5839C70.0424 15.3559 67.5121 16.0849 64.3814 16.7282C63.9954 16.814 63.6952 17.1571 63.6952 17.586C63.6952 18.4008 63.6952 19.7303 63.6952 20.588C63.6952 21.0598 64.0812 21.4458 64.5529 21.4458H72.3583C72.6585 21.4887 72.8729 21.6602 72.8729 21.8746Z" fill="#21262D"/>
<path d="M92.987 34.5691H103.28C103.537 34.5691 103.709 34.7406 103.709 34.9979V36.5418C103.709 36.7992 103.537 36.9707 103.28 36.9707H79.006C78.7487 36.9707 78.5771 36.7992 78.5771 36.5418V34.9979C78.5771 34.7406 78.7487 34.5691 79.006 34.5691H89.4275C89.6848 34.5691 89.8563 34.3975 89.8563 34.1402V31.9959C89.8563 31.7385 89.6848 31.567 89.4275 31.567H81.8794C81.6221 31.567 81.4506 31.3955 81.4506 31.1381V29.5942C81.4506 29.3369 81.6221 29.1653 81.8794 29.1653H89.4275C89.6848 29.1653 89.8563 28.9938 89.8563 28.7365V27.407C89.8563 27.1497 89.6848 26.9781 89.4275 26.9781H88.1837C87.9264 26.9781 87.7549 26.8066 87.7549 26.5493V21.746C87.7549 21.4886 87.5833 21.3171 87.326 21.3171H84.9673C84.7528 21.3171 84.5813 21.4458 84.5384 21.6602C84.0237 24.2334 82.7372 26.1633 80.6357 27.4928C80.4642 27.6214 80.2068 27.5785 80.0782 27.407C79.9066 27.2354 79.7351 27.021 79.4778 26.7637C79.3062 26.5922 79.1347 26.4206 79.006 26.2919C78.7916 26.1204 78.8345 25.7773 79.0489 25.6486C80.507 24.7051 81.4934 23.4614 81.9652 21.9175C82.051 21.6602 81.8365 21.36 81.5363 21.36H79.3491C79.0918 21.36 78.9202 21.1884 78.9202 20.9311V19.4301C78.9202 19.1728 79.0918 19.0012 79.3491 19.0012H81.8794C82.1367 19.0012 82.3083 18.8297 82.3083 18.5724V15.9992C82.3083 15.7418 82.1367 15.5703 81.8794 15.5703H80.2497C79.9924 15.5703 79.8209 15.3988 79.8209 15.1414V13.6833C79.8209 13.426 79.9924 13.2544 80.2497 13.2544H91.9578C92.2151 13.2544 92.3866 13.426 92.3866 13.6833V15.1414C92.3866 15.3988 92.2151 15.5703 91.9578 15.5703H90.4996C90.2423 15.5703 90.0708 15.7418 90.0708 15.9992V18.5724C90.0708 18.8297 90.2423 19.0012 90.4996 19.0012H92.5582C92.8155 19.0012 92.987 19.1728 92.987 19.4301V20.8882C92.987 21.1456 92.8155 21.3171 92.5582 21.3171H90.4996C90.2423 21.3171 90.0708 21.4886 90.0708 21.746V26.0775C90.0708 26.3348 90.2423 26.5064 90.4996 26.5064H92.0007C92.258 26.5064 92.4295 26.6779 92.4295 26.9352V28.7794C92.4295 29.0367 92.6011 29.2082 92.8584 29.2082H100.235C100.492 29.2082 100.664 29.3798 100.664 29.6371V31.181C100.664 31.4383 100.492 31.6099 100.235 31.6099H92.8584C92.6011 31.6099 92.4295 31.7814 92.4295 32.0387V34.1831C92.5582 34.3975 92.7297 34.5691 92.987 34.5691ZM85.2246 19.0012H87.326C87.5833 19.0012 87.7549 18.8297 87.7549 18.5724V15.9992C87.7549 15.7418 87.5833 15.5703 87.326 15.5703H85.2246C84.9673 15.5703 84.7957 15.7418 84.7957 15.9992V18.5724C84.7957 18.8297 85.0101 19.0012 85.2246 19.0012ZM97.0184 14.2408V22.7324C97.0184 22.9897 96.8468 23.1612 96.5895 23.1612H95.0456C94.7883 23.1612 94.6167 22.9897 94.6167 22.7324V14.2408C94.6167 13.9835 94.7883 13.8119 95.0456 13.8119H96.5895C96.804 13.8119 97.0184 13.9835 97.0184 14.2408ZM101.779 12.4396C102.036 12.4396 102.208 12.6111 102.208 12.8684V24.5765C102.208 25.2627 102.122 25.7773 101.95 26.1204C101.779 26.5064 101.479 26.7637 101.007 26.9352C100.364 27.1926 99.0341 27.3212 97.1042 27.3641C96.8897 27.3641 96.7182 27.2355 96.6753 27.021C96.5895 26.5493 96.418 26.0775 96.2035 25.6058C96.0749 25.3056 96.2893 25.0053 96.6324 25.0053C97.8332 25.0482 98.6481 25.0482 99.1627 25.0053C99.3771 25.0053 99.5487 24.9625 99.5916 24.8767C99.6774 24.7909 99.7202 24.6623 99.7202 24.4907V12.8684C99.7202 12.6111 99.8918 12.4396 100.149 12.4396H101.779Z" fill="#21262D"/>
<path d="M110.356 18.8297V16.7711C110.356 16.5138 110.528 16.3423 110.785 16.3423H125.409C125.666 16.3423 125.838 16.5138 125.838 16.7711V34.6549C125.838 34.9122 125.666 35.0837 125.409 35.0837H110.785C110.528 35.0837 110.356 34.9122 110.356 34.6549V32.5963C110.356 32.339 110.528 32.1674 110.785 32.1674H122.45C122.707 32.1674 122.879 31.9959 122.879 31.7386V19.7303C122.879 19.473 122.707 19.3014 122.45 19.3014H110.785C110.528 19.2586 110.356 19.087 110.356 18.8297Z" fill="#21262D"/>
<path d="M150.283 35.0837H135.23C134.973 35.0837 134.801 34.9122 134.801 34.6549V16.7711C134.801 16.5138 134.973 16.3423 135.23 16.3423H150.283C150.541 16.3423 150.712 16.5138 150.712 16.7711V34.6549C150.712 34.9122 150.541 35.0837 150.283 35.0837ZM147.153 19.3443H138.318C138.061 19.3443 137.889 19.5159 137.889 19.7732V31.6957C137.889 31.953 138.061 32.1245 138.318 32.1245H147.153C147.41 32.1245 147.581 31.953 147.581 31.6957V19.7732C147.581 19.5159 147.41 19.3443 147.153 19.3443Z" fill="#21262D"/>
<path d="M158.689 22.2606V20.1592C158.689 19.9019 158.861 19.7303 159.118 19.7303H166.023C166.28 19.7303 166.451 19.5588 166.451 19.3015V15.2701C166.451 15.0128 166.623 14.8412 166.88 14.8412H169.025C169.282 14.8412 169.454 15.0128 169.454 15.2701V19.3015C169.454 19.5588 169.625 19.7303 169.882 19.7303H176.015C176.272 19.7303 176.444 19.9019 176.444 20.1592V22.2606C176.444 22.5179 176.272 22.6895 176.015 22.6895H169.882C169.625 22.6895 169.454 22.861 169.454 23.1184V26.7208C169.411 28.565 168.982 30.066 168.253 31.181C167.524 32.2961 166.623 33.2396 165.637 33.8829C164.65 34.5691 163.621 35.1266 162.592 35.5126C161.777 35.8557 161.048 36.113 160.319 36.3703C160.018 36.4561 159.761 36.2845 159.761 35.9843V33.7113C159.761 33.5398 159.89 33.3683 160.061 33.3254C160.619 33.1109 161.219 32.8965 161.82 32.6392C162.549 32.339 163.321 31.9101 164.093 31.3097C164.908 30.7093 165.465 30.0231 165.851 29.1654C166.237 28.3505 166.409 27.2784 166.409 25.9918V23.0755C166.409 22.8182 166.237 22.6466 165.98 22.6466H159.075C158.861 22.6895 158.689 22.5179 158.689 22.2606Z" fill="#21262D"/>
<path d="M183.649 28.4792V18.8297C183.649 18.5724 183.82 18.4008 184.078 18.4008H189.739C189.996 18.4008 190.168 18.2293 190.168 17.972V15.2701C190.168 15.0128 190.339 14.8412 190.597 14.8412H192.655C192.912 14.8412 193.084 15.0128 193.084 15.2701V17.972C193.084 18.2293 193.256 18.4008 193.513 18.4008H199.388C199.646 18.4008 199.817 18.5724 199.817 18.8297V22.132C199.774 24.405 199.431 26.4206 198.831 28.179C198.23 29.8944 197.416 31.2668 196.386 32.2532C195.4 33.2396 194.328 34.0116 193.17 34.612C192.012 35.2124 190.94 35.6841 189.953 35.9843C189.181 36.2417 188.452 36.4132 187.809 36.499C187.552 36.5419 187.294 36.3274 187.294 36.0701V34.0544C187.294 33.84 187.423 33.6685 187.637 33.6256C188.581 33.454 189.524 33.1538 190.425 32.7678C191.454 32.339 192.484 31.6957 193.556 30.8379C194.628 29.9802 195.443 28.8223 196 27.407C196.558 25.9918 196.858 24.1905 196.858 22.0033V21.6173C196.858 21.36 196.686 21.1885 196.429 21.1885H186.994C186.737 21.1885 186.565 21.36 186.565 21.6173V28.4363C186.565 28.6936 186.394 28.8652 186.136 28.8652H184.078C183.82 28.9081 183.649 28.7365 183.649 28.4792Z" fill="#21262D"/>
<path d="M222.976 15.3559C223.319 15.3559 223.491 15.699 223.362 15.9992C222.89 16.814 222.247 17.8433 221.389 19.0012C220.36 20.4594 219.331 21.6173 218.344 22.5608C218.258 22.6466 218.216 22.7324 218.216 22.861V36.1988C218.216 36.4561 218.044 36.6276 217.787 36.6276H215.685C215.428 36.6276 215.256 36.4561 215.256 36.1988V26.0775C215.256 25.7344 214.87 25.52 214.57 25.7344C212.683 27.1497 210.282 28.4363 207.451 29.6371C207.151 29.7658 206.851 29.5513 206.851 29.2511V27.0639C206.851 26.8924 206.936 26.7637 207.108 26.6779C208.609 25.9918 210.067 25.2627 211.439 24.4049C212.898 23.5043 214.399 22.3035 215.985 20.7596C217.486 19.2586 218.859 17.5431 220.017 15.5274C220.103 15.3988 220.231 15.313 220.403 15.313H222.976V15.3559Z" fill="#21262D"/>
<path d="M230.996 35.4697C230.696 35.4697 230.481 35.1695 230.61 34.8693C230.867 34.226 231.167 33.4969 231.468 32.5963C231.896 31.3955 232.24 29.9802 232.54 28.3505C232.84 26.7208 232.969 24.9196 232.969 22.9897V16.2994C232.969 16.0421 233.14 15.8705 233.397 15.8705H235.413C235.67 15.8705 235.842 16.0421 235.842 16.2994V22.9897C235.842 25.8202 235.585 28.2219 235.199 30.2375C234.813 32.1245 234.298 33.7542 233.698 35.2124C233.612 35.3839 233.483 35.4697 233.312 35.4697H230.996ZM247.507 32.0388C245.363 34.0544 242.833 35.3839 240.002 35.9843C239.745 36.0272 239.487 35.8128 239.487 35.5555V15.9992C239.487 15.7419 239.659 15.5703 239.916 15.5703H241.889C242.146 15.5703 242.318 15.7419 242.318 15.9992V31.2668C242.318 31.6099 242.661 31.7814 242.961 31.6528C244.334 30.9666 245.663 30.066 246.95 28.8652C247.207 28.6078 247.679 28.8223 247.679 29.1654V31.6957C247.679 31.8243 247.593 31.953 247.507 32.0388Z" fill="#21262D"/>
<path d="M255.613 18.4008V16.2994C255.613 16.0421 255.784 15.8705 256.041 15.8705H269.122C269.379 15.8705 269.551 15.699 269.551 15.4417V13.7691C269.551 13.5118 269.722 13.3402 269.98 13.3402H271.009C271.266 13.3402 271.438 13.5118 271.438 13.7691V16.8569C271.438 17.1142 271.266 17.2858 271.009 17.2858H269.937C269.765 17.2858 269.594 17.4144 269.508 17.586C269.208 18.6153 268.822 19.7303 268.35 20.8454C267.621 22.5179 266.763 24.1476 265.777 25.6916C265.691 25.8202 265.691 26.0346 265.777 26.1633C266.677 27.407 267.492 28.4363 268.264 29.294C269.036 30.1518 269.937 31.0524 270.966 31.953C271.052 32.0388 271.095 32.1674 271.095 32.2532V34.9122C271.095 35.2553 270.666 35.4697 270.409 35.2553C270.151 35.0408 269.851 34.8264 269.508 34.5262C268.693 33.8829 267.878 33.068 266.935 32.1245C266.12 31.2668 265.176 30.1518 264.147 28.7365C263.975 28.5221 263.632 28.5221 263.461 28.7365C262.174 30.2804 261.059 31.4812 259.987 32.4247C258.872 33.4111 257.8 34.226 256.813 34.8264C256.17 35.2124 255.613 35.5555 255.141 35.8128C254.841 35.9843 254.498 35.7699 254.498 35.4268V33.068C254.498 32.9394 254.583 32.7678 254.712 32.725C256.041 31.9101 257.328 30.9666 258.572 29.8087C259.858 28.6078 261.188 27.1068 262.517 25.3056C263.718 23.633 264.79 21.7031 265.648 19.4301C265.777 19.1299 265.562 18.8297 265.262 18.8297H255.956C255.784 18.8297 255.613 18.6153 255.613 18.4008ZM272.51 16.8569V13.7691C272.51 13.5118 272.681 13.3402 272.939 13.3402H273.968C274.225 13.3402 274.397 13.5118 274.397 13.7691V16.8569C274.397 17.1142 274.225 17.2858 273.968 17.2858H272.939C272.681 17.2858 272.51 17.1142 272.51 16.8569Z" fill="#21262D"/>
<path d="M288.249 19.7303L289.965 19.9876C290.222 20.0305 290.394 20.245 290.351 20.5023C289.836 23.4186 289.107 25.9918 288.206 28.3076C288.164 28.4363 288.164 28.6078 288.249 28.7365C289.364 30.2375 290.265 31.6528 290.951 32.9394C291.037 33.1109 290.994 33.3254 290.822 33.454L289.407 34.6548C289.193 34.8264 288.893 34.7835 288.764 34.5262C288.378 33.7113 287.82 32.8107 287.177 31.8243C287.006 31.567 286.62 31.567 286.448 31.8243C285.033 34.1831 283.232 36.113 281.087 37.614C280.916 37.7427 280.615 37.6998 280.487 37.5283C280.144 37.0565 279.758 36.6276 279.372 36.1988C279.157 35.9843 279.243 35.6841 279.458 35.5555C281.816 34.0115 283.703 31.9101 285.076 29.2511C285.161 29.1225 285.119 28.908 285.033 28.7794C283.66 26.9353 282.202 25.1769 280.701 23.5043C280.53 23.3328 280.573 23.0326 280.744 22.9039L281.902 21.9604C282.074 21.8318 282.331 21.8318 282.46 22.0033C283.36 22.9468 284.475 24.2334 285.762 25.7773C285.976 26.0346 286.405 25.9489 286.491 25.6058C287.006 24.019 287.392 22.2177 287.735 20.245C287.778 19.859 287.992 19.6874 288.249 19.7303ZM304.889 19.0441V20.7167C304.889 20.974 304.718 21.1456 304.46 21.1456H302.145C301.887 21.1456 301.716 21.3171 301.716 21.5744V34.5262C301.716 35.2981 301.63 35.8986 301.415 36.3703C301.244 36.7992 300.901 37.1423 300.429 37.3567C299.614 37.6998 298.113 37.8713 295.969 37.9142C295.754 37.9142 295.583 37.7856 295.54 37.5711C295.411 36.9707 295.24 36.3703 294.982 35.727C294.854 35.4268 295.111 35.1266 295.411 35.1266C296.998 35.1695 297.985 35.1695 298.413 35.1695C298.885 35.1695 299.1 34.9551 299.1 34.5262V21.6173C299.1 21.36 298.928 21.1885 298.671 21.1885H292.195C291.938 21.1885 291.766 21.0169 291.766 20.7596V19.5159C291.766 19.2586 291.594 19.087 291.337 19.087H280.015C279.758 19.087 279.586 18.9155 279.586 18.6581V17.1142C279.586 16.8569 279.758 16.6854 280.015 16.6854H284.304C284.561 16.6854 284.733 16.5138 284.733 16.2565V12.654C284.733 12.3967 284.904 12.2252 285.161 12.2252H286.834C287.091 12.2252 287.263 12.3967 287.263 12.654V16.2565C287.263 16.5138 287.434 16.6854 287.692 16.6854H292.281C292.538 16.6854 292.71 16.8569 292.71 17.1142V18.2293C292.71 18.4866 292.881 18.6581 293.138 18.6581H298.757C299.014 18.6581 299.185 18.4866 299.185 18.2293V12.654C299.185 12.3967 299.357 12.2252 299.614 12.2252H301.33C301.587 12.2252 301.759 12.3967 301.759 12.654V18.2293C301.759 18.4866 301.93 18.6581 302.187 18.6581H304.503C304.718 18.6153 304.889 18.8297 304.889 19.0441ZM296.698 29.9802L295.24 30.7093C294.982 30.8379 294.725 30.7093 294.639 30.452C294.425 29.7229 294.082 28.908 293.653 27.9645C293.181 26.9781 292.667 26.0346 292.109 25.2198C291.98 25.0054 292.066 24.7052 292.281 24.6194L293.653 23.9761C293.825 23.8903 294.082 23.9332 294.211 24.1047C295.583 26.1204 296.484 27.9217 296.955 29.5085C296.998 29.68 296.912 29.8515 296.698 29.9802Z" fill="#21262D"/>
<path d="M323.974 26.8924V28.8652C323.974 28.9938 324.017 29.0796 324.102 29.1654C325.303 30.3233 326.89 31.3955 328.863 32.4247C330.707 33.3682 332.68 34.0544 334.781 34.5262C335.081 34.612 335.21 34.9551 335.039 35.2124C334.653 35.6841 334.309 36.1559 334.009 36.7134C333.923 36.8849 333.709 36.9707 333.538 36.9278C331.736 36.4561 330.064 35.7699 328.434 34.9122C327.019 34.1402 325.775 33.3254 324.66 32.4247C324.403 32.2103 323.974 32.3819 323.974 32.7678V37.5711C323.974 37.7856 323.802 38 323.545 38H321.615C321.401 38 321.186 37.8285 321.186 37.5711V32.6392C321.186 32.2961 320.757 32.0816 320.5 32.2961C318.055 34.4404 315.053 35.9843 311.58 37.0136C311.408 37.0565 311.194 36.9707 311.108 36.7992C310.85 36.3274 310.507 35.8557 310.121 35.4268C309.907 35.1695 310.036 34.8264 310.336 34.7406C312.437 34.226 314.41 33.454 316.297 32.4676C318.313 31.3955 319.9 30.1946 321.1 28.8223C321.186 28.7365 321.186 28.6507 321.186 28.5221V26.8924C321.186 26.6779 321.015 26.4635 320.757 26.4635H315.354C315.139 26.4635 314.925 26.6351 314.925 26.8924V31.2239C314.925 31.4384 314.753 31.6528 314.496 31.6528H312.566C312.352 31.6528 312.137 31.4812 312.137 31.2239V24.7052C312.137 24.4907 312.309 24.2763 312.566 24.2763H320.714C320.929 24.2763 321.143 24.1047 321.143 23.8474V22.861C321.143 22.6466 320.972 22.4322 320.714 22.4322H310.765C310.55 22.4322 310.336 22.2606 310.336 22.0033V20.588C310.336 20.3736 310.507 20.1592 310.765 20.1592H320.8C321.015 20.1592 321.229 19.9876 321.229 19.7303V19.0441C321.229 18.9155 321.143 18.7439 321.015 18.701C320.929 18.6581 320.8 18.5724 320.672 18.4866C320.457 18.3579 320.328 18.2722 320.286 18.2293C320.629 17.9291 320.929 17.6718 321.186 17.4144C321.443 17.1571 321.272 16.6854 320.886 16.6854H318.27C317.97 16.6854 317.755 17.0285 317.884 17.3287C318.141 17.8433 318.356 18.2722 318.527 18.6153C318.613 18.8297 318.484 19.087 318.27 19.1728L316.769 19.6874C316.554 19.7732 316.297 19.6445 316.211 19.4301C315.911 18.5724 315.525 17.7146 315.053 16.8998C314.968 16.7711 314.839 16.6854 314.667 16.6854H314.196C314.067 16.6854 313.938 16.7711 313.853 16.8569C313.081 17.9291 312.352 18.7868 311.751 19.4301C311.58 19.6016 311.365 19.6016 311.194 19.473C310.808 19.1728 310.379 18.8726 309.821 18.5295C309.564 18.4008 309.521 18.0577 309.735 17.8433C311.322 16.3423 312.566 14.4981 313.509 12.3109C313.595 12.1394 313.81 12.0107 313.981 12.0536L315.654 12.4825C315.911 12.5254 316.04 12.8256 315.954 13.04C315.868 13.2544 315.74 13.5118 315.611 13.7691C315.482 14.0693 315.697 14.3695 315.997 14.3695H321.572C321.787 14.3695 322.001 14.541 322.001 14.7984V15.2272C322.001 15.6132 322.516 15.8276 322.773 15.4845C323.502 14.4553 324.06 13.3831 324.488 12.268C324.574 12.0536 324.746 11.9678 324.96 12.0107L326.676 12.3967C326.933 12.4396 327.062 12.7398 326.976 12.9542C326.89 13.1687 326.761 13.4689 326.633 13.7691C326.504 14.0693 326.719 14.3695 327.019 14.3695H334.395C334.61 14.3695 334.824 14.541 334.824 14.7984V16.1707C334.824 16.3852 334.653 16.5996 334.395 16.5996H330.278C329.978 16.5996 329.763 16.9427 329.892 17.2429C330.192 17.7575 330.407 18.1864 330.535 18.4866C330.664 18.701 330.535 19.0012 330.278 19.0441L328.777 19.5159C328.563 19.6016 328.348 19.473 328.262 19.2586C327.962 18.5295 327.576 17.7146 326.976 16.814C326.89 16.6854 326.761 16.5996 326.633 16.5996H325.26C325.132 16.5996 325.003 16.6854 324.917 16.814C324.617 17.2858 324.188 17.8004 323.716 18.4008H323.974V19.6445C323.974 19.859 324.145 20.0734 324.403 20.0734H333.966C334.181 20.0734 334.395 20.2449 334.395 20.5023V21.9175C334.395 22.132 334.224 22.3464 333.966 22.3464H324.403C324.188 22.3464 323.974 22.5179 323.974 22.7753V23.7617C323.974 23.9761 324.145 24.1905 324.403 24.1905H332.465C332.68 24.1905 332.894 24.3621 332.894 24.6194V29.1225C332.894 29.7229 332.808 30.1946 332.68 30.4948C332.508 30.7951 332.251 31.0095 331.822 31.181C331.222 31.3955 330.149 31.5241 328.563 31.5241C328.391 31.5241 328.22 31.4384 328.177 31.2668C328.091 31.0095 327.919 30.6235 327.662 30.1089C327.533 29.8087 327.748 29.5085 328.048 29.5085C328.863 29.5513 329.42 29.5513 329.763 29.5085C330.064 29.5085 330.235 29.3798 330.235 29.1225V26.8495C330.235 26.6351 330.064 26.4206 329.806 26.4206H324.403C324.188 26.5064 323.974 26.6779 323.974 26.8924Z" fill="#21262D"/>
</g>
<defs>
<filter id="filter0_d" x="4.05859" y="5.9171" width="57.0829" height="57.0829" filterUnits="userSpaceOnUse" color-interpolation-filters="sRGB">
<feFlood flood-opacity="0" result="BackgroundImageFix"/>
<feColorMatrix in="SourceAlpha" type="matrix" values="0 0 0 0 0 0 0 0 0 0 0 0 0 0 0 0 0 0 127 0"/>
<feOffset/>
<feGaussianBlur stdDeviation="10"/>
<feColorMatrix type="matrix" values="0 0 0 0 1 0 0 0 0 1 0 0 0 0 1 0 0 0 1 0"/>
<feBlend mode="normal" in2="BackgroundImageFix" result="effect1_dropShadow"/>
<feBlend mode="normal" in="SourceGraphic" in2="effect1_dropShadow" result="shape"/>
</filter>
<linearGradient id="paint0_linear" x1="32.6002" y1="28.2058" x2="26.3474" y2="40.7113" gradientUnits="userSpaceOnUse">
<stop offset="0.104167" stop-color="#1D6CF7"/>
<stop offset="1" stop-color="#1DF7F7"/>
</linearGradient>
<linearGradient id="paint1_linear" x1="17.203" y1="19.2029" x2="32.9047" y2="34.9046" gradientUnits="userSpaceOnUse">
<stop stop-color="#1D6CF7"/>
<stop offset="1" stop-color="#1D6CF7" stop-opacity="0"/>
</linearGradient>
<clipPath id="clip0">
<path d="M0 0H342.017V50H0V0Z" fill="white"/>
</clipPath>
</defs>
</svg>
